<svg width="124" height="105" viewBox="0 0 124 105" fill="none" xmlns="http://www.w3.org/2000/svg">
<path d="M60.654 47.6744C43.0093 38.2321 7.49953 19.3134 6.61787 19.1762L66.689 8.88104L120.353 36.8697L60.654 47.6744Z" fill="#F5F5F4"/>
<path d="M14.4105 44.5439L17.4966 24.7064L19.8183 25.7448L16.8351 44.9211L14.4105 44.5439Z" fill="#F5F5F4"/>
<circle cx="16.0269" cy="41.4091" r="4.68442" transform="rotate(8.84251 16.0269 41.4091)" fill="#F5F5F4"/>
<path d="M8.71864 60.8155L13.4066 45.2907L17.5796 45.9399L17.5353 62.1871C17.7018 64.019 16.4071 64.1186 15.8699 64.1855L9.71315 63.2277C8.44434 62.5788 8.5423 61.4653 8.71864 60.8155Z" fill="#F5F5F4"/>
<path d="M91.2501 64.959C80.5923 68.0025 69.319 68.8646 57.6479 67.049C45.9766 65.2333 35.457 60.9853 26.2274 54.8479L29.4287 34.2699L60.3088 49.9443L94.4508 44.385L91.2501 64.959Z" fill="#F5F5F4"/>
<path d="M85.9533 104.525C82.4097 104.525 79.2648 103.75 76.5186 102.2C73.8166 100.605 71.6905 98.4568 70.1402 95.7548C68.6341 93.0086 67.8811 89.9301 67.8811 86.5194C67.8811 83.1087 68.6341 80.0524 70.1402 77.3504C71.6905 74.6042 73.8166 72.4559 76.5186 70.9056C79.2648 69.311 82.4097 68.5137 85.9533 68.5137C89.4969 68.5137 92.6196 69.311 95.3216 70.9056C98.0236 72.5002 100.128 74.6485 101.634 77.3504C103.184 80.0524 103.959 83.1087 103.959 86.5194C103.959 89.9301 103.184 93.0086 101.634 95.7548C100.128 98.4568 98.0236 100.605 95.3216 102.2C92.6196 103.75 89.4969 104.525 85.9533 104.525ZM85.9533 96.4192C87.6365 96.4192 89.1647 96.0427 90.5378 95.2897C91.9552 94.4924 93.0847 93.3629 93.9263 91.9012C94.8122 90.3952 95.2551 88.6012 95.2551 86.5194C95.2551 84.4376 94.8122 82.6658 93.9263 81.2041C93.0847 79.7423 91.9552 78.6128 90.5378 77.8155C89.1647 77.0182 87.6365 76.6196 85.9533 76.6196C84.3144 76.6196 82.7641 77.0182 81.3024 77.8155C79.8849 78.6128 78.7333 79.7423 77.8474 81.2041C77.0058 82.6658 76.585 84.4376 76.585 86.5194C76.585 88.6012 77.0058 90.3952 77.8474 91.9012C78.7333 93.3629 79.8849 94.4924 81.3024 95.2897C82.7641 96.0427 84.3144 96.4192 85.9533 96.4192Z" fill="#F5F5F4"/>
<path d="M61.6682 80.8618C66.9431 80.8619 71.5962 83.5203 74.3635 87.5698H67.8362C66.0963 86.3282 63.9685 85.5952 61.6682 85.5952C59.368 85.5952 57.2401 86.3282 55.5002 87.5698H48.9719C51.7393 83.5201 56.3931 80.8618 61.6682 80.8618Z" fill="#F5F5F4"/>
<path d="M37.6065 104.525C34.0629 104.525 30.918 103.75 28.1718 102.2C25.4698 100.605 23.3437 98.4568 21.7934 95.7548C20.2873 93.0086 19.5343 89.9301 19.5343 86.5194C19.5343 83.1087 20.2873 80.0524 21.7934 77.3504C23.3437 74.6042 25.4698 72.4559 28.1718 70.9056C30.918 69.311 34.0629 68.5137 37.6065 68.5137C41.15 68.5137 44.2728 69.311 46.9748 70.9056C49.6768 72.5002 51.7807 74.6485 53.2868 77.3504C54.8371 80.0524 55.6122 83.1087 55.6122 86.5194C55.6122 89.9301 54.8371 93.0086 53.2868 95.7548C51.7807 98.4568 49.6768 100.605 46.9748 102.2C44.2728 103.75 41.15 104.525 37.6065 104.525ZM37.6065 96.4192C39.2897 96.4192 40.8179 96.0427 42.191 95.2897C43.6084 94.4924 44.7379 93.3629 45.5795 91.9012C46.4654 90.3952 46.9083 88.6012 46.9083 86.5194C46.9083 84.4376 46.4654 82.6658 45.5795 81.2041C44.7379 79.7423 43.6084 78.6128 42.191 77.8155C40.8179 77.0182 39.2897 76.6196 37.6065 76.6196C35.9676 76.6196 34.4173 77.0182 32.9556 77.8155C31.5381 78.6128 30.3865 79.7423 29.5006 81.2041C28.659 82.6658 28.2382 84.4376 28.2382 86.5194C28.2382 88.6012 28.659 90.3952 29.5006 91.9012C30.3865 93.3629 31.5381 94.4924 32.9556 95.2897C34.4173 96.0427 35.9676 96.4192 37.6065 96.4192Z" fill="#F5F5F4"/>
</svg>
