<svg width="522" height="105" viewBox="0 0 522 105" fill="none" xmlns="http://www.w3.org/2000/svg">
<path d="M416.786 47.6744C399.141 38.2321 363.632 19.3134 362.75 19.1762L422.821 8.88104L476.485 36.8697L416.786 47.6744Z" fill="#F5F5F4"/>
<path d="M370.543 44.5439L373.629 24.7064L375.95 25.7448L372.967 44.9211L370.543 44.5439Z" fill="#F5F5F4"/>
<circle cx="372.159" cy="41.4091" r="4.68442" transform="rotate(8.84251 372.159 41.4091)" fill="#F5F5F4"/>
<path d="M364.851 60.8155L369.539 45.2907L373.712 45.9399L373.667 62.1871C373.834 64.019 372.539 64.1186 372.002 64.1855L365.845 63.2277C364.576 62.5788 364.674 61.4653 364.851 60.8155Z" fill="#F5F5F4"/>
<path d="M447.382 64.959C436.724 68.0025 425.451 68.8646 413.78 67.049C402.109 65.2333 391.589 60.9853 382.359 54.8479L385.561 34.2699L416.441 49.9443L450.583 44.3851L447.382 64.959Z" fill="#F5F5F4"/>
<path d="M505.535 104.525C502.124 104.525 499.068 103.75 496.366 102.2C493.708 100.649 491.604 98.5232 490.054 95.8213C488.548 93.1193 487.795 90.0408 487.795 86.5859C487.795 83.3523 488.548 80.3625 490.054 77.6162C491.56 74.8699 493.619 72.6774 496.233 71.0385C498.846 69.3553 501.836 68.5137 505.203 68.5137C508.835 68.5137 511.891 69.2888 514.371 70.8391C516.852 72.3894 518.734 74.4713 520.019 77.0847C521.304 79.6538 521.946 82.5108 521.946 85.6557C521.946 86.3644 521.924 86.9845 521.879 87.516C521.835 88.0033 521.791 88.3576 521.747 88.5791H492.645V82.4H513.574C513.53 81.647 513.308 80.8719 512.91 80.0746C512.511 79.2773 511.957 78.5464 511.249 77.882C510.54 77.2176 509.676 76.686 508.658 76.2874C507.683 75.8444 506.553 75.6229 505.269 75.6229C503.586 75.6229 502.035 76.0659 500.618 76.9518C499.245 77.8377 498.16 79.0779 497.362 80.6725C496.565 82.2228 496.166 84.0832 496.166 86.2536C496.166 88.5127 496.587 90.4395 497.429 92.0341C498.27 93.5844 499.4 94.7803 500.817 95.6219C502.279 96.4192 503.896 96.8179 505.668 96.8179C507.749 96.8179 509.499 96.375 510.917 95.4891C512.334 94.5589 513.441 93.4072 514.239 92.0341L521.281 95.4891C519.687 98.2796 517.605 100.494 515.036 102.133C512.467 103.728 509.3 104.525 505.535 104.525Z" fill="#F5F5F4"/>
<path d="M462.799 77.0182V69.5767H469.177V77.0182H462.799ZM468.845 103.462V67.7164C468.845 65.1916 469.354 62.999 470.373 61.1386C471.436 59.2783 472.898 57.8608 474.758 56.8863C476.663 55.8676 478.9 55.3582 481.469 55.3582C482.355 55.3582 483.263 55.4246 484.193 55.5575C485.123 55.6904 486.009 55.8676 486.851 56.089V64.5936C486.098 64.2392 485.367 63.9735 484.658 63.7963C483.949 63.6191 483.241 63.5305 482.532 63.5305C481.026 63.5305 479.808 63.9735 478.878 64.8594C477.992 65.701 477.549 66.8969 477.549 68.4472V103.462H468.845ZM477.217 77.0182V69.5767H485.854V77.0182H477.217Z" fill="#F5F5F4"/>
<path d="M442.085 104.525C438.542 104.525 435.397 103.75 432.651 102.2C429.949 100.605 427.823 98.4568 426.272 95.7548C424.766 93.0086 424.013 89.9301 424.013 86.5194C424.013 83.1087 424.766 80.0524 426.272 77.3504C427.823 74.6042 429.949 72.4559 432.651 70.9056C435.397 69.311 438.542 68.5137 442.085 68.5137C445.629 68.5137 448.752 69.311 451.454 70.9056C454.156 72.5002 456.26 74.6485 457.766 77.3504C459.316 80.0524 460.091 83.1087 460.091 86.5194C460.091 89.9301 459.316 93.0086 457.766 95.7548C456.26 98.4568 454.156 100.605 451.454 102.2C448.752 103.75 445.629 104.525 442.085 104.525ZM442.085 96.4192C443.769 96.4192 445.297 96.0427 446.67 95.2897C448.087 94.4924 449.217 93.3629 450.058 91.9012C450.944 90.3952 451.387 88.6013 451.387 86.5194C451.387 84.4376 450.944 82.6658 450.058 81.2041C449.217 79.7423 448.087 78.6128 446.67 77.8155C445.297 77.0182 443.769 76.6196 442.085 76.6196C440.446 76.6196 438.896 77.0182 437.434 77.8155C436.017 78.6128 434.865 79.7423 433.979 81.2041C433.138 82.6658 432.717 84.4376 432.717 86.5194C432.717 88.6013 433.138 90.3952 433.979 91.9012C434.865 93.3629 436.017 94.4924 437.434 95.2897C438.896 96.0427 440.446 96.4192 442.085 96.4192Z" fill="#F5F5F4"/>
<path d="M417.8 80.8618C423.075 80.8619 427.728 83.5203 430.496 87.5698H423.968C422.228 86.3282 420.101 85.5952 417.8 85.5952C415.5 85.5952 413.372 86.3283 411.632 87.5698H405.104C407.871 83.5201 412.525 80.8618 417.8 80.8618Z" fill="#F5F5F4"/>
<path d="M393.739 104.525C390.195 104.525 387.05 103.75 384.304 102.2C381.602 100.605 379.476 98.4568 377.925 95.7548C376.419 93.0086 375.666 89.9301 375.666 86.5194C375.666 83.1087 376.419 80.0524 377.925 77.3504C379.476 74.6042 381.602 72.4559 384.304 70.9056C387.05 69.311 390.195 68.5137 393.739 68.5137C397.282 68.5137 400.405 69.311 403.107 70.9056C405.809 72.5002 407.913 74.6485 409.419 77.3504C410.969 80.0524 411.744 83.1087 411.744 86.5194C411.744 89.9301 410.969 93.0086 409.419 95.7548C407.913 98.4568 405.809 100.605 403.107 102.2C400.405 103.75 397.282 104.525 393.739 104.525ZM393.739 96.4192C395.422 96.4192 396.95 96.0427 398.323 95.2897C399.74 94.4924 400.87 93.3629 401.712 91.9012C402.597 90.3952 403.04 88.6013 403.04 86.5194C403.04 84.4376 402.597 82.6658 401.712 81.2041C400.87 79.7423 399.74 78.6128 398.323 77.8155C396.95 77.0182 395.422 76.6196 393.739 76.6196C392.1 76.6196 390.549 77.0182 389.088 77.8155C387.67 78.6128 386.519 79.7423 385.633 81.2041C384.791 82.6658 384.37 84.4376 384.37 86.5194C384.37 88.6013 384.791 90.3952 385.633 91.9012C386.519 93.3629 387.67 94.4924 389.088 95.2897C390.549 96.0427 392.1 96.4192 393.739 96.4192Z" fill="#F5F5F4"/>
<path d="M350.859 103.462V69.5768H359.032V74.0948H359.563C360.139 73.0317 360.892 72.1016 361.822 71.3043C362.797 70.4627 363.926 69.7982 365.211 69.311C366.495 68.8238 367.868 68.5801 369.33 68.5801C370.216 68.5801 371.013 68.6466 371.722 68.7795C372.431 68.9123 373.051 69.0895 373.582 69.311V78.0149C372.652 77.6605 371.722 77.3726 370.792 77.1511C369.906 76.8854 368.954 76.7525 367.935 76.7525C366.207 76.7525 364.701 77.1954 363.417 78.0813C362.176 78.9229 361.224 80.0967 360.56 81.6027C359.895 83.0645 359.563 84.7255 359.563 86.5859V103.462H350.859Z" fill="#F5F5F4"/>
<path d="M311.632 103.462V55.8897H328.375C331.432 55.8897 334.178 56.532 336.614 57.8165C339.05 59.0568 340.977 60.8064 342.395 63.0654C343.856 65.3245 344.587 67.9378 344.587 70.9056C344.587 73.8733 343.856 76.5088 342.395 78.8121C340.977 81.0712 339.05 82.8429 336.614 84.1275C334.178 85.3677 331.432 85.9879 328.375 85.9879H316.615V77.4833H328.641C330.191 77.4833 331.498 77.1732 332.561 76.5531C333.624 75.933 334.422 75.1357 334.953 74.1612C335.485 73.1424 335.75 72.0572 335.75 70.9056C335.75 69.7539 335.485 68.6908 334.953 67.7164C334.422 66.7419 333.624 65.9446 332.561 65.3245C331.498 64.7043 330.191 64.3943 328.641 64.3943H320.602V103.462H311.632Z" fill="#F5F5F4"/>
<path d="M283.017 104.525C278.853 104.525 275.73 103.241 273.649 100.672C271.567 98.1024 270.526 94.6032 270.526 90.1737V69.5767H279.23V89.1106C279.23 91.4139 279.783 93.23 280.891 94.5589C282.042 95.8434 283.504 96.4857 285.276 96.4857C287.003 96.4857 288.465 96.0649 289.661 95.2233C290.857 94.3374 291.765 93.1636 292.385 91.7019C293.05 90.2401 293.382 88.6234 293.382 86.8516V69.5767H302.086V103.462H293.913V99.2098H293.382C292.717 100.273 291.854 101.203 290.791 102C289.727 102.798 288.532 103.418 287.203 103.861C285.918 104.304 284.523 104.525 283.017 104.525Z" fill="#F5F5F4"/>
<path d="M246.837 103.462V60.4078H255.807V103.462H246.837ZM233.549 64.3943V55.8897H269.095V64.3943H233.549Z" fill="#F5F5F4"/>
<path d="M211.537 104.525C209.145 104.525 207.019 104.06 205.158 103.13C203.342 102.155 201.903 100.804 200.84 99.0769C199.777 97.3494 199.245 95.3562 199.245 93.0972C199.245 90.7495 199.843 88.7341 201.039 87.051C202.279 85.3678 203.918 84.0611 205.956 83.1309C208.038 82.2007 210.341 81.7356 212.866 81.7356C214.239 81.7356 215.479 81.8242 216.586 82.0014C217.738 82.1342 218.757 82.3114 219.643 82.5329C220.529 82.7544 221.259 82.998 221.835 83.2638V81.802C221.835 79.986 221.149 78.5021 219.776 77.3504C218.402 76.1545 216.52 75.5565 214.128 75.5565C212.533 75.5565 210.983 75.933 209.477 76.686C208.015 77.3947 206.797 78.3471 205.823 79.543L200.242 75.1579C201.349 73.7404 202.634 72.5445 204.095 71.57C205.557 70.5512 207.174 69.7982 208.946 69.311C210.717 68.7794 212.578 68.5137 214.527 68.5137C219.709 68.5137 223.651 69.7096 226.353 72.1015C229.055 74.4934 230.406 77.9927 230.406 82.5993V103.462H221.835V100.007H221.304C220.684 100.804 219.908 101.557 218.978 102.266C218.048 102.931 216.963 103.462 215.723 103.861C214.482 104.304 213.087 104.525 211.537 104.525ZM213.597 97.7481C215.368 97.7481 216.852 97.3716 218.048 96.6186C219.288 95.8213 220.219 94.8025 220.839 93.5622C221.503 92.322 221.835 91.0153 221.835 89.6422C220.861 89.1549 219.753 88.7784 218.513 88.5127C217.273 88.2026 216.011 88.0476 214.726 88.0476C212.157 88.0476 210.385 88.5348 209.411 89.5093C208.436 90.4838 207.949 91.6797 207.949 93.0972C207.949 94.426 208.414 95.5334 209.344 96.4192C210.319 97.3051 211.736 97.7481 213.597 97.7481ZM211.205 63.4641L213.995 54.5609H224.161L218.181 63.4641H211.205Z" fill="#F5F5F4"/>
<path d="M179.354 104.525C175.899 104.525 172.82 103.772 170.118 102.266C167.46 100.716 165.356 98.5897 163.806 95.8877C162.3 93.1415 161.547 90.0187 161.547 86.5194C161.547 83.0201 162.3 79.9195 163.806 77.2176C165.356 74.5156 167.46 72.3894 170.118 70.8391C172.82 69.2888 175.899 68.5137 179.354 68.5137C183.119 68.5137 186.352 69.311 189.054 70.9056C191.756 72.5002 193.705 74.8035 194.901 77.8155L186.928 81.1376C186.219 79.5873 185.223 78.4578 183.938 77.7491C182.653 76.9961 181.125 76.6196 179.354 76.6196C177.626 76.6196 176.076 77.0404 174.703 77.882C173.329 78.6793 172.244 79.8088 171.447 81.2705C170.65 82.7322 170.251 84.4819 170.251 86.5194C170.251 88.557 170.65 90.3287 171.447 91.8348C172.244 93.2965 173.329 94.4481 174.703 95.2897C176.076 96.087 177.626 96.4857 179.354 96.4857C181.303 96.4857 182.919 96.0649 184.204 95.2233C185.488 94.3374 186.529 93.1415 187.327 91.6354L195.1 95.0904C193.771 97.9253 191.756 100.206 189.054 101.934C186.352 103.661 183.119 104.525 179.354 104.525Z" fill="#F5F5F4"/>
<path d="M118.189 77.0182V69.5767H124.567V77.0182H118.189ZM124.235 103.462V67.7164C124.235 65.1916 124.744 62.999 125.763 61.1386C126.826 59.2782 128.288 57.8608 130.148 56.8863C132.053 55.8676 134.29 55.3582 136.859 55.3582C137.612 55.3582 138.365 55.4025 139.118 55.4911C139.915 55.5797 140.668 55.7347 141.377 55.9562V64.3278C140.801 64.0621 140.225 63.8627 139.649 63.7298C139.073 63.597 138.498 63.5305 137.922 63.5305C136.416 63.5305 135.198 63.9735 134.268 64.8594C133.382 65.701 132.939 66.8969 132.939 68.4472V103.462H124.235ZM132.606 77.0182V69.5767H146.692V77.0182H132.606ZM146.36 103.462V69.5767H155.064V103.462H146.36ZM150.745 65.856C149.195 65.856 147.866 65.3023 146.759 64.1949C145.651 63.0876 145.098 61.7587 145.098 60.2084C145.098 58.6581 145.651 57.3514 146.759 56.2884C147.866 55.181 149.195 54.6273 150.745 54.6273C152.295 54.6273 153.602 55.181 154.665 56.2884C155.773 57.3514 156.326 58.6581 156.326 60.2084C156.326 61.7587 155.773 63.0876 154.665 64.1949C153.602 65.3023 152.295 65.856 150.745 65.856Z" fill="#F5F5F4"/>
<path d="M103.649 103.462V69.5767H112.353V103.462H103.649ZM108.034 65.856C106.484 65.856 105.155 65.3023 104.047 64.1949C102.94 63.0876 102.386 61.7587 102.386 60.2084C102.386 58.6581 102.94 57.3514 104.047 56.2884C105.155 55.181 106.484 54.6273 108.034 54.6273C109.584 54.6273 110.891 55.181 111.954 56.2884C113.061 57.3514 113.615 58.6581 113.615 60.2084C113.615 61.7587 113.061 63.0876 111.954 64.1949C110.891 65.3023 109.584 65.856 108.034 65.856Z" fill="#F5F5F4"/>
<path d="M86.5841 103.462V55.8897H95.288V103.462H86.5841Z" fill="#F5F5F4"/>
<path d="M59.8366 104.525C57.4447 104.525 55.3185 104.06 53.4582 103.13C51.6421 102.155 50.2025 100.804 49.1394 99.0769C48.0764 97.3494 47.5448 95.3562 47.5448 93.0972C47.5448 90.7495 48.1428 88.7341 49.3388 87.0509C50.579 85.3678 52.2179 84.0611 54.2555 83.1309C56.3373 82.2007 58.6406 81.7356 61.1654 81.7356C62.5385 81.7356 63.7788 81.8242 64.8862 82.0014C66.0378 82.1342 67.0566 82.3114 67.9425 82.5329C68.8284 82.7544 69.5592 82.998 70.1351 83.2638V81.802C70.1351 79.986 69.4485 78.5021 68.0754 77.3504C66.7022 76.1545 64.8197 75.5565 62.4278 75.5565C60.8332 75.5565 59.2829 75.933 57.7769 76.686C56.3152 77.3947 55.0971 78.3471 54.1226 79.543L48.5415 75.1579C49.6488 73.7404 50.9334 72.5445 52.3951 71.57C53.8568 70.5512 55.4736 69.7982 57.2453 69.311C59.0171 68.7794 60.8775 68.5137 62.8265 68.5137C68.0089 68.5137 71.9511 69.7096 74.6531 72.1015C77.3551 74.4934 78.7061 77.9927 78.7061 82.5993V103.462H70.1351V100.007H69.6035C68.9834 100.804 68.2082 101.557 67.2781 102.266C66.3479 102.931 65.2627 103.462 64.0224 103.861C62.7822 104.304 61.3869 104.525 59.8366 104.525ZM61.8963 97.7481C63.6681 97.7481 65.1519 97.3716 66.3479 96.6186C67.5881 95.8213 68.5183 94.8025 69.1384 93.5622C69.8028 92.322 70.1351 91.0153 70.1351 89.6422C69.1606 89.1549 68.0532 88.7784 66.813 88.5127C65.5727 88.2026 64.3103 88.0476 63.0258 88.0476C60.4567 88.0476 58.6849 88.5348 57.7104 89.5093C56.736 90.4838 56.2487 91.6797 56.2487 93.0972C56.2487 94.426 56.7138 95.5334 57.644 96.4192C58.6185 97.3051 60.0359 97.7481 61.8963 97.7481Z" fill="#F5F5F4"/>
<path d="M24.9157 104.525C21.4164 104.525 18.1386 103.905 15.0823 102.665C12.0703 101.38 9.43474 99.6085 7.17572 97.3494C4.9167 95.0904 3.14491 92.4549 1.86037 89.4429C0.620124 86.4308 0 83.1752 0 79.6759C0 76.1766 0.620124 72.921 1.86037 69.909C3.14491 66.8969 4.9167 64.2614 7.17572 62.0024C9.43474 59.7434 12.0703 57.9937 15.0823 56.7535C18.1386 55.4689 21.4164 54.8267 24.9157 54.8267C27.4405 54.8267 29.7659 55.1367 31.8921 55.7568C34.0182 56.3327 35.9672 57.1964 37.739 58.3481C39.555 59.4997 41.2161 60.9172 42.7221 62.6004L36.4101 68.713C35.4799 67.6056 34.439 66.6533 33.2874 65.856C32.18 65.0587 30.9398 64.4386 29.5666 63.9956C28.1935 63.5527 26.6653 63.3312 24.9821 63.3312C22.0144 63.3312 19.3124 64.0178 16.8762 65.3909C14.4843 66.7198 12.5797 68.6023 11.1622 71.0385C9.74481 73.4747 9.03609 76.3538 9.03609 79.6759C9.03609 82.9537 9.74481 85.8329 11.1622 88.3134C12.5797 90.7496 14.4843 92.6542 16.8762 94.0273C19.3124 95.3562 22.0144 96.0206 24.9821 96.0206C27.6398 96.0206 29.9874 95.4669 32.025 94.3596C34.1068 93.2522 35.945 91.724 37.5396 89.7751L43.9181 95.8213C42.3677 97.6817 40.6181 99.2763 38.6692 100.605C36.7202 101.89 34.5941 102.864 32.2907 103.529C29.9874 104.193 27.5291 104.525 24.9157 104.525Z" fill="#F5F5F4"/>
</svg>
